<?xml version="1.0" encoding="UTF-8"?>
<svg version="1.1" xmlns="http://www.w3.org/2000/svg" width="228" height="221">
<path d="M0 0 C75.24 0 150.48 0 228 0 C228 72.93 228 145.86 228 221 C152.76 221 77.52 221 0 221 C0 148.07 0 75.14 0 0 Z " fill="#FDFDFD" transform="translate(0,0)"/>
<path d="M0 0 C0.69743317 0.32108231 1.39486633 0.64216461 2.11343384 0.97297668 C4.32467089 1.99527243 6.52538305 3.03828517 8.7265625 4.08203125 C10.19468263 4.76372793 11.66342888 5.44407791 13.1328125 6.12304688 C20.60508691 9.59165009 27.97978589 13.20864295 35.3515625 16.89453125 C35.3515625 25.14453125 35.3515625 33.39453125 35.3515625 41.89453125 C41.6738511 38.86413904 41.6738511 38.86413904 47.97509766 35.79052734 C49.17078369 35.23486084 49.17078369 35.23486084 50.390625 34.66796875 C51.19709473 34.28044434 52.00356445 33.89291992 52.83447266 33.49365234 C58.13453259 32.23212498 63.1759984 35.66617541 67.859375 37.94140625 C68.7694783 38.38193329 68.7694783 38.38193329 69.69796753 38.83135986 C71.62584295 39.76567337 73.55118359 40.70508581 75.4765625 41.64453125 C76.74463691 42.25943383 78.012865 42.87401958 79.28125 43.48828125 C87.00080909 47.23388657 94.6762517 51.05687585 102.3515625 54.89453125 C102.3515625 67.76453125 102.3515625 80.63453125 102.3515625 93.89453125 C96.7621875 96.61703125 91.1728125 99.33953125 85.4140625 102.14453125 C83.66875244 102.99563477 81.92344238 103.84673828 80.12524414 104.72363281 C78.71246122 105.41092834 77.29962296 106.0981101 75.88671875 106.78515625 C75.17704956 107.13175293 74.46738037 107.47834961 73.73620605 107.83544922 C72.32490396 108.52102809 70.90952941 109.1982987 69.48985291 109.86636353 C67.98959687 110.58774114 66.50777071 111.34812138 65.04151917 112.13632202 C59.2002822 115.11554484 59.2002822 115.11554484 55.03833008 114.03173828 C54.03439209 113.41153809 53.0304541 112.79133789 51.99609375 112.15234375 C50.87912109 111.49878906 49.76214844 110.84523438 48.61132812 110.171875 C47.46059726 109.45706421 46.31151899 108.73958652 45.1640625 108.01953125 C42.89236584 106.62112421 40.60723682 105.25730533 38.30859375 103.90234375 C37.30803955 103.2798877 36.30748535 102.65743164 35.27661133 102.01611328 C32.3876428 100.60524963 32.3876428 100.60524963 29.36474609 101.52099609 C26.27884993 102.92767668 23.21485047 104.34165762 20.18359375 105.86328125 C19.04341797 106.43433594 17.90324219 107.00539063 16.72851562 107.59375 C15.55224609 108.18800781 14.37597656 108.78226562 13.1640625 109.39453125 C11.96435432 109.9951146 10.76448585 110.59537787 9.56445312 111.1953125 C3.31547226 114.29644413 3.31547226 114.29644413 -2.6484375 117.89453125 C-7.42947239 117.60279575 -10.83550391 115.95695117 -14.96484375 113.62109375 C-15.83326149 113.13447769 -15.83326149 113.13447769 -16.71922302 112.63803101 C-18.55463752 111.60685685 -20.38271913 110.56339976 -22.2109375 109.51953125 C-23.44160294 108.82601603 -24.67271919 108.13330015 -25.90429688 107.44140625 C-35.25028007 102.17730934 -35.25028007 102.17730934 -38.15991211 100.11083984 C-41.48061043 98.48779275 -43.12456101 98.90267534 -46.6484375 99.89453125 C-48.6405676 100.7410816 -50.60065239 101.66589039 -52.52734375 102.65234375 C-53.61337891 103.19503906 -54.69941406 103.73773438 -55.81835938 104.296875 C-58.08634221 105.44849323 -60.3519636 106.60477355 -62.61523438 107.765625 C-63.69998047 108.30574219 -64.78472656 108.84585938 -65.90234375 109.40234375 C-66.88533447 109.9039502 -67.8683252 110.40555664 -68.88110352 110.92236328 C-72.88707284 112.32966543 -75.19903871 111.52766267 -78.99414062 109.86987305 C-79.79787109 109.44875244 -80.60160156 109.02763184 -81.4296875 108.59375 C-82.34484131 108.11647461 -83.25999512 107.63919922 -84.20288086 107.14746094 C-85.17491455 106.63086914 -86.14694824 106.11427734 -87.1484375 105.58203125 C-88.15205322 105.05383789 -89.15566895 104.52564453 -90.18969727 103.98144531 C-100.48297429 98.52500132 -110.56830494 92.73405632 -120.6484375 86.89453125 C-120.6484375 74.68453125 -120.6484375 62.47453125 -120.6484375 49.89453125 C-115.22418252 47.50591543 -109.79885891 45.12011502 -104.37036133 42.74121094 C-102.52590495 41.9319466 -100.6821444 41.12109433 -98.83911133 40.30859375 C-96.18233861 39.13769095 -93.52307515 37.97261453 -90.86328125 36.80859375 C-90.04633286 36.44706207 -89.22938446 36.0855304 -88.38768005 35.71304321 C-76.39221085 30.48302824 -76.39221085 30.48302824 -72.10961914 31.49365234 C-71.35028076 31.88117676 -70.59094238 32.26870117 -69.80859375 32.66796875 C-69.05457275 33.03841309 -68.30055176 33.40885742 -67.52368164 33.79052734 C-66.59547607 34.27859863 -65.66727051 34.76666992 -64.7109375 35.26953125 C-61.7203125 36.79578125 -58.7296875 38.32203125 -55.6484375 39.89453125 C-55.6484375 31.31453125 -55.6484375 22.73453125 -55.6484375 13.89453125 C-51.88078732 12.27650614 -48.11296424 10.658892 -44.34472656 9.04223633 C-43.06858786 8.49461083 -41.79254285 7.94676695 -40.51660156 7.39868164 C-39.90268555 7.13498779 -39.28876953 6.87129395 -38.65625 6.59960938 C-38.04334106 6.33630829 -37.43043213 6.0730072 -36.7989502 5.80172729 C-34.94516586 5.0077497 -33.08883498 4.21993678 -31.23242188 3.43212891 C-28.92105101 2.44050672 -26.61924851 1.42612608 -24.33007812 0.38427734 C-23.30591797 -0.07253418 -22.28175781 -0.5293457 -21.2265625 -1 C-20.3387207 -1.40710205 -19.45087891 -1.8142041 -18.53613281 -2.23364258 C-11.58269581 -4.33295975 -6.38470761 -3.0727043 0 0 Z " fill="#0A0808" transform="translate(122.6484375,3.10546875)"/>
<path d="M0 0 C8.848125 -0.0928125 8.848125 -0.0928125 17.875 -0.1875 C19.71562012 -0.21481201 21.55624023 -0.24212402 23.45263672 -0.27026367 C32.99330943 -0.35292006 41.65588126 -0.34007422 50 4.875 C53.35678286 8.44158179 53.91248261 11.08106739 54.375 15.9375 C54.22744018 20.29051461 52.97049391 22.7324567 50 26 C47.42591367 27.58178588 44.79070216 28.84849668 42 30 C42.67546875 30.29132813 43.3509375 30.58265625 44.046875 30.8828125 C53.62803235 35.28571429 53.62803235 35.28571429 56 41 C56.92586232 46.86051147 56.34319349 52.04892443 53.41015625 57.2421875 C50.2091826 61.23232085 45.77179447 63.40940184 41 65 C39.63407817 65.08567246 38.26435142 65.11773647 36.89575195 65.11352539 C36.06370239 65.11340454 35.23165283 65.11328369 34.37438965 65.11315918 C33.06951599 65.10548523 33.06951599 65.10548523 31.73828125 65.09765625 C30.93531616 65.09664917 30.13235107 65.09564209 29.30505371 65.09460449 C26.30752127 65.08937517 23.31000919 65.07541389 20.3125 65.0625 C13.609375 65.041875 6.90625 65.02125 0 65 C0 43.55 0 22.1 0 0 Z " fill="#020202" transform="translate(86,156)"/>
<path d="M0 0 C1.5631897 0.00785522 1.5631897 0.00785522 3.15795898 0.01586914 C4.28266602 0.0190918 5.40737305 0.02231445 6.56616211 0.02563477 C7.75016602 0.03401367 8.93416992 0.04239258 10.15405273 0.05102539 C11.34192383 0.05553711 12.52979492 0.06004883 13.75366211 0.06469727 C16.69967499 0.07652864 19.64558954 0.09301252 22.59155273 0.11352539 C25.0985762 6.87426899 27.50879808 13.59042645 29.40405273 20.55102539 C31.45166694 27.96422458 33.99837824 35.18005871 36.59863281 42.41601562 C39.2749747 49.93964898 41.38323184 57.38440225 43.59155273 65.11352539 C21.15155273 65.11352539 -1.28844727 65.11352539 -24.40844727 65.11352539 C-23.76289435 61.24020789 -23.25692957 58.28870244 -21.99731445 54.72314453 C-21.71321716 53.91112076 -21.42911987 53.09909698 -21.13641357 52.26246643 C-20.82915344 51.39991745 -20.52189331 50.53736847 -20.20532227 49.64868164 C-19.88565491 48.7383165 -19.56598755 47.82795135 -19.2366333 46.88999939 C-18.21517978 43.9836943 -17.18710892 41.07978614 -16.15844727 38.17602539 C-14.81798853 34.37591801 -13.48036208 30.57481717 -12.14282227 26.77368164 C-11.81954956 25.85761139 -11.49627686 24.94154114 -11.16320801 23.99771118 C-8.7936422 17.26596263 -6.52559215 10.50630757 -4.32739258 3.71679688 C-3.06639855 0.14453881 -3.06639855 0.14453881 0 0 Z " fill="#040404" transform="translate(170.408447265625,155.886474609375)"/>
<path d="M0 0 C6.93 0 13.86 0 21 0 C22.54884835 4.64654506 23.92574725 9.26528559 25.1640625 13.99609375 C25.36099701 14.74786392 25.55793152 15.49963409 25.76083374 16.27418518 C26.17384738 17.85637117 26.58557937 19.43889222 26.99609375 21.02172852 C27.41515651 22.63144359 27.83800668 24.24017746 28.26464844 25.84790039 C28.88531211 28.18686523 29.49463719 30.52853131 30.1015625 32.87109375 C30.2921524 33.5817247 30.48274231 34.29235565 30.67910767 35.02452087 C31.82517704 39.51582267 32.18194272 43.41212336 32 48 C32.66 48 33.32 48 34 48 C33.96011963 47.02836914 33.92023926 46.05673828 33.87915039 45.05566406 C33.88428713 40.56601657 34.86326211 36.45012578 35.93359375 32.109375 C36.13098648 31.28294495 36.32837921 30.45651489 36.53175354 29.6050415 C37.15963562 26.98485765 37.79854943 24.36750403 38.4375 21.75 C38.86332473 19.97672913 39.28846179 18.20329299 39.71289062 16.4296875 C42.78967908 3.63096276 42.78967908 3.63096276 44 0 C50.93 0 57.86 0 65 0 C58.15015761 21.71901246 51.28758751 43.42302521 44 65 C36.41 65 28.82 65 21 65 C20.2265625 62.66808594 19.453125 60.33617187 18.65625 57.93359375 C17.60491341 54.76798079 16.55245286 51.60274199 15.5 48.4375 C15.09266129 47.21157135 15.09266129 47.21157135 14.67709351 45.96087646 C10.99844375 34.89593574 7.27514709 23.85205434 3.32421875 12.88061523 C3.02773438 12.04602783 2.73125 11.21144043 2.42578125 10.3515625 C2.17223877 9.64854004 1.91869629 8.94551758 1.6574707 8.22119141 C0.86402387 5.54061982 0.4595833 2.75749979 0 0 Z " fill="#030303" transform="translate(14,156)"/>
<path d="M0 0 C3.89433562 1.4918431 7.63699687 3.19555018 11.39990234 4.98876953 C12.14607819 5.34107635 12.89225403 5.69338318 13.66104126 6.05636597 C16.02603446 7.17388546 18.38876807 8.2960918 20.75146484 9.41845703 C22.36199457 10.18048729 23.97267019 10.94220929 25.58349609 11.70361328 C29.51618277 13.56333192 33.44685089 15.42725502 37.37646484 17.29345703 C34.39258883 19.67283714 31.36490997 21.41580598 27.94677734 23.10595703 C26.90392578 23.62416016 25.86107422 24.14236328 24.78662109 24.67626953 C23.70251953 25.20994141 22.61841797 25.74361328 21.50146484 26.29345703 C20.42509766 26.82712891 19.34873047 27.36080078 18.23974609 27.91064453 C16.22649787 28.90858015 14.21242982 29.90486483 12.19726562 30.89892578 C10.21058221 31.88109089 8.25743953 32.9325923 6.33300781 34.03173828 C2.86367983 35.51229047 1.88771485 35.53963511 -1.62353516 34.29345703 C-4.46334223 33.04610072 -7.22434974 31.66761371 -9.98681641 30.25830078 C-10.77879929 29.86018692 -11.57078217 29.46207306 -12.38676453 29.05189514 C-14.90606979 27.78387213 -17.42106433 26.50755171 -19.93603516 25.23095703 C-21.64734569 24.36777543 -23.35893129 23.50513894 -25.07080078 22.64306641 C-29.25825916 20.53283302 -33.44187224 18.41515005 -37.62353516 16.29345703 C-35.18758986 12.63953909 -32.63229717 11.7646584 -28.71728516 10.19189453 C-28.03678101 9.90996246 -27.35627686 9.6280304 -26.65515137 9.33755493 C-24.48141556 8.43914268 -22.30271078 7.55358195 -20.12353516 6.66845703 C-18.65573242 6.06515289 -17.18827989 5.46099598 -15.72119141 4.85595703 C-13.65712135 4.00482248 -11.59261052 3.15501764 -9.52526855 2.31185913 C-2.32429087 -0.62595364 -2.32429087 -0.62595364 0 0 Z " fill="#6381BB" transform="translate(112.62353515625,2.70654296875)"/>
<path d="M0 0 C1.77262207 0.77827148 1.77262207 0.77827148 3.58105469 1.57226562 C7.1984892 3.18920552 10.81062466 4.8179277 14.42138672 6.44970703 C15.97974873 7.15258744 17.53933282 7.85276437 19.10009766 8.55029297 C21.35600459 9.55865447 23.60803733 10.57523518 25.859375 11.59375 C26.91085724 12.06101501 26.91085724 12.06101501 27.98358154 12.53771973 C32.88593524 14.77187048 32.88593524 14.77187048 34 17 C30.18920638 18.92007282 26.37605994 20.83542817 22.5625 22.75 C21.49322266 23.28882812 20.42394531 23.82765625 19.32226562 24.3828125 C16.22234332 25.93751359 13.11168069 27.46901006 10 29 C8.73905518 29.65258789 8.73905518 29.65258789 7.45263672 30.31835938 C6.69354004 30.69283203 5.93444336 31.06730469 5.15234375 31.453125 C4.51159912 31.77958008 3.87085449 32.10603516 3.21069336 32.44238281 C-3.15012818 34.04681312 -8.80826233 30.96429546 -14.33984375 28.18359375 C-15.10680069 27.80767593 -15.87375763 27.43175812 -16.66395569 27.04444885 C-19.09308455 25.85123904 -21.51526954 24.64464199 -23.9375 23.4375 C-25.59135539 22.62215075 -27.24564824 21.80768822 -28.90039062 20.99414062 C-32.93872716 19.00631664 -36.97089532 17.00646559 -41 15 C-41 14.34 -41 13.68 -41 13 C-35.97394818 10.80483544 -30.93877603 8.63275981 -25.89379883 6.48144531 C-24.17918726 5.74649595 -22.46723036 5.00532076 -20.75805664 4.2578125 C-18.29986174 3.18400328 -15.83296992 2.13299141 -13.36328125 1.0859375 C-12.22080681 0.57829361 -12.22080681 0.57829361 -11.05525208 0.06039429 C-6.6000531 -1.79784606 -4.39856886 -2.51683986 0 0 Z " fill="#DAD021" transform="translate(119,46)"/>
<path d="M0 0 C2.30198592 1.33949735 4.70116324 2.34627747 7.16424561 3.35214233 C8.65522533 4.00166547 10.1461155 4.65139425 11.63690186 5.30136108 C12.41485107 5.63458374 13.19280029 5.9678064 13.99432373 6.31112671 C19.586009 8.76207537 19.586009 8.76207537 20.69940186 10.98886108 C15.74940186 12.47386108 15.74940186 12.47386108 10.69940186 13.98886108 C10.69940186 15.96886108 10.69940186 17.94886108 10.69940186 19.98886108 C7.67217181 21.7032755 4.62573762 23.38028498 1.57440186 25.05136108 C0.71846436 25.53669312 -0.13747314 26.02202515 -1.01934814 26.52206421 C-7.33446344 29.94679981 -7.33446344 29.94679981 -11.26153564 30.11776733 C-15.95567868 28.3740561 -20.35723316 26.16449624 -24.80059814 23.86386108 C-26.76153197 22.86515596 -28.72246948 21.86645805 -30.68341064 20.86776733 C-31.63763916 20.37808472 -32.59186768 19.8884021 -33.57501221 19.38388062 C-37.26219259 17.49669424 -40.96731221 15.64661838 -44.67559814 13.80136108 C-46.55059814 12.86386108 -48.42559814 11.92636108 -50.30059814 10.98886108 C-50.30059814 10.32886108 -50.30059814 9.66886108 -50.30059814 8.98886108 C-45.49944547 6.64706967 -40.66957728 4.38861996 -35.79864502 2.19564819 C-34.1520763 1.44139999 -32.51485094 0.66636086 -30.88848877 -0.13052368 C-18.7094974 -6.07414079 -11.79733443 -7.0516684 0 0 Z " fill="#D2782E" transform="translate(60.30059814453125,44.011138916015625)"/>
<path d="M0 0 C3.5897942 1.39474266 7.0643478 2.94130334 10.53515625 4.609375 C11.59283203 5.11726563 12.65050781 5.62515625 13.74023438 6.1484375 C15.38475586 6.94121094 15.38475586 6.94121094 17.0625 7.75 C18.13177734 8.26304688 19.20105469 8.77609375 20.30273438 9.3046875 C27.57273186 12.80131469 34.78196257 16.39098129 42 20 C42 30.56 42 41.12 42 52 C37.85126398 50.61708799 34.76339634 49.47981577 31.05859375 47.42578125 C30.15069092 46.92602783 29.24278809 46.42627441 28.30737305 45.91137695 C27.36031494 45.38374756 26.41325684 44.85611816 25.4375 44.3125 C23.47413137 43.22885311 21.51059022 42.1455187 19.546875 41.0625 C18.59876953 40.53785156 17.65066406 40.01320312 16.67382812 39.47265625 C12.19559017 37.00619064 7.68206366 34.60715157 3.16796875 32.20703125 C1 31 1 31 0 30 C-0.08783542 27.78144736 -0.10694609 25.56011504 -0.09765625 23.33984375 C-0.0962413 22.67537735 -0.09482635 22.01091095 -0.09336853 21.3263092 C-0.08775518 19.19666101 -0.07520054 17.06711661 -0.0625 14.9375 C-0.05748671 13.49674631 -0.05292351 12.05599097 -0.04882812 10.61523438 C-0.03778145 7.07678898 -0.02050792 3.53840461 0 0 Z " fill="#DBD121" transform="translate(74,63)"/>
<path d="M0 0 C8.22001045 3.06318127 16.06728877 6.81673527 23.9440918 10.65551758 C26.08763628 11.69974513 28.23404143 12.73791217 30.38085938 13.77539062 C31.74496132 14.4371504 33.10889991 15.09924705 34.47265625 15.76171875 C35.11421158 16.07211594 35.75576691 16.38251312 36.41676331 16.70231628 C40.88427945 18.88427945 40.88427945 18.88427945 42 20 C42.08790975 22.29151417 42.10694038 24.58572524 42.09765625 26.87890625 C42.0962413 27.5655687 42.09482635 28.25223114 42.09336853 28.95970154 C42.08775479 31.16067801 42.07520007 33.36155409 42.0625 35.5625 C42.05748676 37.05143083 42.05292355 38.54036324 42.04882812 40.02929688 C42.03778093 43.68623075 42.02050713 47.34310558 42 51 C38.06271261 49.76506144 34.45949845 48.33783025 30.8046875 46.42578125 C29.84643066 45.92602783 28.88817383 45.42627441 27.90087891 44.91137695 C26.90233887 44.38374756 25.90379883 43.85611816 24.875 43.3125 C23.85196777 42.77520264 22.82893555 42.23790527 21.77490234 41.68432617 C2.51616697 31.51616697 2.51616697 31.51616697 0 29 C-0.08775605 26.85441173 -0.10695219 24.70595579 -0.09765625 22.55859375 C-0.09443359 21.25341797 -0.09121094 19.94824219 -0.08789062 18.60351562 C-0.07953401 17.2148431 -0.07106905 15.82617123 -0.0625 14.4375 C-0.05748666 13.04492344 -0.05292347 11.65234519 -0.04882812 10.25976562 C-0.03699434 6.8398013 -0.0205088 3.41992156 0 0 Z " fill="#D4792E" transform="translate(6,58)"/>
<path d="M0 0 C1.11714134 0.53058266 1.11714134 0.53058266 2.2568512 1.07188416 C4.61436671 2.19405566 6.96536308 3.32918465 9.31640625 4.46484375 C10.9221119 5.23198724 12.52822799 5.99827226 14.13476562 6.76367188 C18.05429645 8.63333298 21.96803814 10.51463379 25.87890625 12.40234375 C23.65787187 14.8503741 21.5235984 16.25714664 18.5625 17.70703125 C17.29116211 18.33544922 17.29116211 18.33544922 15.99414062 18.9765625 C15.11048828 19.40582031 14.22683594 19.83507812 13.31640625 20.27734375 C12.0315332 20.90962891 12.0315332 20.90962891 10.72070312 21.5546875 C8.98600303 22.40833224 7.24817215 23.25564328 5.50732422 24.09667969 C3.72136055 24.9838554 1.95472213 25.91080549 0.20751953 26.87207031 C-6.26263871 30.38052787 -6.26263871 30.38052787 -10.1953125 30.48046875 C-14.27274593 28.97796992 -18.09115766 27.17674742 -21.93359375 25.15234375 C-23.09665039 24.57806641 -23.09665039 24.57806641 -24.28320312 23.9921875 C-29.91844084 21.0439179 -29.91844084 21.0439179 -30.9453125 17.79296875 C-31.00332031 17.0040625 -31.06132812 16.21515625 -31.12109375 15.40234375 C-31.61504639 14.94875488 -32.10899902 14.49516602 -32.61791992 14.02783203 C-34.12109375 12.40234375 -34.12109375 12.40234375 -34.49853516 10.30322266 C-34.1035339 4.28360809 -34.1035339 4.28360809 -31.45214844 1.90527344 C-29.18121984 0.65526898 -26.91925439 -0.30300001 -24.49609375 -1.22265625 C-23.70074219 -1.57199219 -22.90539062 -1.92132813 -22.0859375 -2.28125 C-13.7820134 -5.70372118 -7.7829771 -3.79281737 0 0 Z " fill="#92267E" transform="translate(191.12109375,45.59765625)"/>
<path d="M0 0 C0 10.89 0 21.78 0 33 C-8.39718034 37.23641531 -16.80514337 41.4266652 -25.3125 45.4375 C-26.03493896 45.77910156 -26.75737793 46.12070313 -27.50170898 46.47265625 C-30.3097836 47.78953718 -33.05474591 49.01824864 -36 50 C-36 39.44 -36 28.88 -36 18 C-17.31976744 8.11046512 -17.31976744 8.11046512 -7.875 3.375 C-7.19501953 3.03275391 -6.51503906 2.69050781 -5.81445312 2.33789062 C-1.12409044 0 -1.12409044 0 0 0 Z " fill="#DBD021" transform="translate(157,65)"/>
<path d="M0 0 C0 10.56 0 21.12 0 32 C-8.5625 36.5 -8.5625 36.5 -11.38085938 37.97998047 C-15.44186312 40.11539436 -19.49646532 42.26070315 -23.53125 44.4453125 C-24.21501709 44.81462891 -24.89878418 45.18394531 -25.60327148 45.56445312 C-26.88853522 46.2601772 -28.17197378 46.95928594 -29.45336914 47.66210938 C-33.77858831 50 -33.77858831 50 -36 50 C-36 39.44 -36 28.88 -36 18 C-27.4375 13.5 -27.4375 13.5 -24.61914062 12.02001953 C-20.55813688 9.88460564 -16.50353468 7.73929685 -12.46875 5.5546875 C-11.78498291 5.18537109 -11.10121582 4.81605469 -10.39672852 4.43554688 C-9.11146478 3.7398228 -7.82802622 3.04071406 -6.54663086 2.33789062 C-2.22141169 0 -2.22141169 0 0 0 Z " fill="#92267D" transform="translate(221,62)"/>
<path d="M0 0 C6.75 2.25 6.75 2.25 9.89404297 3.78759766 C10.5943161 4.12779938 11.29458923 4.4680011 12.01608276 4.81851196 C12.75069733 5.18004364 13.48531189 5.54157532 14.2421875 5.9140625 C15.01055939 6.28856537 15.77893127 6.66306824 16.57058716 7.04891968 C19.00711114 8.23746267 21.44107535 9.43114455 23.875 10.625 C25.53368738 11.43523737 27.19253987 12.24513681 28.8515625 13.0546875 C32.90296309 15.03255248 36.95207708 17.01502793 41 19 C36.85434267 22.28514953 32.46194927 24.18544848 27.625 26.25 C26.78710938 26.62640625 25.94921875 27.0028125 25.0859375 27.390625 C20.34118507 29.4198273 17.10444318 30.68959921 12 29 C7.88632468 27.1933859 3.9867548 25.08197195 0 23 C0 15.41 0 7.82 0 0 Z " fill="#627FB9" transform="translate(70,22)"/>
<path d="M0 0 C0 8.91 0 17.82 0 27 C1.65 27.66 3.3 28.32 5 29 C1.30991828 32.05419297 -2.80017954 34.06593095 -7.0625 36.1875 C-7.78244141 36.55552734 -8.50238281 36.92355469 -9.24414062 37.30273438 C-9.93830078 37.65013672 -10.63246094 37.99753906 -11.34765625 38.35546875 C-12.29137085 38.82956177 -12.29137085 38.82956177 -13.25415039 39.31323242 C-15 40 -15 40 -18 40 C-18.1983934 35.67693146 -18.34319621 31.35629654 -18.43945312 27.0300293 C-18.47958611 25.56015873 -18.53411158 24.09060567 -18.60351562 22.62182617 C-19.16556052 10.41801306 -19.16556052 10.41801306 -16.33740234 6.97729492 C-14.25915832 5.6669502 -12.31737267 4.80009815 -10 4 C-9.18789063 3.55011719 -8.37578125 3.10023437 -7.5390625 2.63671875 C-2.22222222 0 -2.22222222 0 0 0 Z " fill="#CF762E" transform="translate(71,69)"/>
<path d="M0 0 C4.53776056 0.79317195 8.25276794 2.45174475 12.3125 4.5625 C14.519375 5.696875 16.72625 6.83125 19 8 C19 18.23 19 28.46 19 39 C15.78347758 38.19586939 13.72814649 37.45983637 10.890625 35.93359375 C10.13652344 35.53076172 9.38242188 35.12792969 8.60546875 34.71289062 C7.82816406 34.29201172 7.05085937 33.87113281 6.25 33.4375 C5.45722656 33.01275391 4.66445312 32.58800781 3.84765625 32.15039062 C1.89628933 31.10417583 -0.05279814 30.05394047 -2 29 C-1.67 28.34 -1.34 27.68 -1 27 C-0.84588894 24.9692523 -0.75017547 22.93393579 -0.68359375 20.8984375 C-0.64169922 19.68671875 -0.59980469 18.475 -0.55664062 17.2265625 C-0.51732422 15.95554687 -0.47800781 14.68453125 -0.4375 13.375 C-0.39431641 12.09625 -0.35113281 10.8175 -0.30664062 9.5 C-0.20030114 6.33344652 -0.09827167 3.16681247 0 0 Z " fill="#91267D" transform="translate(161,72)"/>
<path d="M0 0 C0.66 0 1.32 0 2 0 C2 10.56 2 21.12 2 32 C-3.73613587 31.18055202 -6.79718788 30.43727948 -11.80859375 28.05859375 C-12.42017838 27.77146011 -13.031763 27.48432648 -13.66188049 27.18849182 C-15.5913442 26.2801955 -17.5143805 25.35914049 -19.4375 24.4375 C-20.75415189 23.81489717 -22.07120598 23.19314412 -23.38867188 22.57226562 C-26.59715326 21.05796633 -29.80000765 19.53217146 -33 18 C-29.72868139 15.34909525 -26.29123824 13.5378254 -22.51953125 11.6796875 C-21.59934456 11.22349533 -21.59934456 11.22349533 -20.66056824 10.75808716 C-18.71308734 9.79320841 -16.76300077 8.83375744 -14.8125 7.875 C-12.85165727 6.90838401 -10.89141171 5.9406027 -8.93229675 4.9704895 C-7.16294371 4.09473569 -5.39169628 3.22281237 -3.62036133 2.35107422 C-1.13795041 1.23942829 -1.13795041 1.23942829 0 0 Z " fill="#627FB9" transform="translate(152,24)"/>
<path d="M0 0 C6.6 0 13.2 0 20 0 C22 6 22 6 22 11 C13.75 11 5.5 11 -3 11 C-1 2 -1 2 0 0 Z " fill="#FBFBFB" transform="translate(170,210)"/>
<path d="M0 0 C10.33828733 -0.36922455 10.33828733 -0.36922455 13.32421875 1.296875 C15 3 15 3 15.5625 6.4375 C15 10 15 10 13.125 12.4375 C8.59021366 14.70489317 5.03940403 14.26876822 0 14 C0 9.38 0 4.76 0 0 Z " fill="#F5F5F5" transform="translate(106,195)"/>
<path d="M0 0 C2.3176448 2.3176448 2.55266251 3.53734716 3.2890625 6.68359375 C3.61777344 8.07481445 3.61777344 8.07481445 3.953125 9.49414062 C4.17484375 10.46544922 4.3965625 11.43675781 4.625 12.4375 C4.85445312 13.40494141 5.08390625 14.37238281 5.3203125 15.36914062 C7 22.57280041 7 22.57280041 7 26 C2.71 26 -1.58 26 -6 26 C-5.73445312 24.87722656 -5.46890625 23.75445312 -5.1953125 22.59765625 C-3.41885392 15.07457244 -1.64782866 7.55254804 0 0 Z " fill="#E6E6E6" transform="translate(179,170)"/>
<path d="M0 0 C4.16021408 -0.21153631 7.08997426 -0.34125965 11 1.125 C13 3 13 3 13.5625 5.9375 C13 9 13 9 11.5625 11.375 C7.67632781 13.83940188 4.54866791 13.2675687 0 13 C0 8.71 0 4.42 0 0 Z " fill="#F4F4F4" transform="translate(106,169)"/>
</svg>
